<svg width="128" height="128" viewBox="0 0 128 128" fill="none" xmlns="http://www.w3.org/2000/svg">
<path d="M75.4104 99H36.6352C35.3561 99 34.4137 98.737 33.8078 98.2111C33.2693 97.6194 33 96.6991 33 95.45V31.55C33 30.3009 33.2693 29.4134 33.8078 28.8875C34.4137 28.2958 35.3561 28 36.6352 28H68.8469C75.4441 28 80.3246 29.2491 83.4886 31.7472C86.6526 34.1796 88.2345 37.9597 88.2345 43.0875V47.8208C88.2345 50.5819 87.7296 52.85 86.7199 54.625C85.7774 56.3343 84.2964 57.6162 82.2769 58.4708C86.5852 58.8653 89.7828 60.3116 91.8697 62.8097C93.9566 65.3079 95 68.9565 95 73.7556V82.8278C95 88.35 93.3844 92.4259 90.1531 95.0556C86.9891 97.6852 82.0749 99 75.4104 99ZM55.7199 44.7639V55.4139H64.3029C65.582 55.4139 66.5244 55.0852 67.1303 54.4278C67.8035 53.7704 68.1401 52.7843 68.1401 51.4694V48.7083C68.1401 47.3935 67.8035 46.4074 67.1303 45.75C66.5244 45.0926 65.582 44.7639 64.3029 44.7639H55.7199ZM55.7199 70.6V82.2361H68.8469C70.126 82.2361 71.0684 81.9074 71.6743 81.25C72.3474 80.5926 72.684 79.6065 72.684 78.2917V74.4458C72.684 73.131 72.3474 72.1778 71.6743 71.5861C71.0684 70.9287 70.126 70.6 68.8469 70.6H55.7199Z" fill="black"/>
<g filter="url(#filter0_i_664_800)">
<circle cx="64" cy="64" r="58" fill="#ED7470" fill-opacity="0.7"/>
</g>
<defs>
<filter id="filter0_i_664_800" x="6" y="5" width="116" height="117" filterUnits="userSpaceOnUse" color-interpolation-filters="sRGB">
<feFlood flood-opacity="0" result="BackgroundImageFix"/>
<feBlend mode="normal" in="SourceGraphic" in2="BackgroundImageFix" result="shape"/>
<feColorMatrix in="SourceAlpha" type="matrix" values="0 0 0 0 0 0 0 0 0 0 0 0 0 0 0 0 0 0 127 0" result="hardAlpha"/>
<feOffset dy="-6"/>
<feGaussianBlur stdDeviation="0.5"/>
<feComposite in2="hardAlpha" operator="arithmetic" k2="-1" k3="1"/>
<feColorMatrix type="matrix" values="0 0 0 0 0.657267 0 0 0 0 0.101118 0 0 0 0 0.0827327 0 0 0 1 0"/>
<feBlend mode="normal" in2="shape" result="effect1_innerShadow_664_800"/>
</filter>
</defs>
</svg>
